<?xml version="1.0" encoding="UTF-8"?>
<!DOCTYPE svg PUBLIC "-//W3C//DTD SVG 1.1//EN" "http://www.w3.org/Graphics/SVG/1.1/DTD/svg11.dtd">
<svg xmlns="http://www.w3.org/2000/svg" version="1.1" viewBox="0 0 43 43" stroke="none">
	<rect width="100%" height="100%" fill="#FFFFFF00"/>
	<path d="M3,3h1v1h-1z M4,3h1v1h-1z M5,3h1v1h-1z M6,3h1v1h-1z M7,3h1v1h-1z M8,3h1v1h-1z M9,3h1v1h-1z M15,3h1v1h-1z M16,3h1v1h-1z M19,3h1v1h-1z M20,3h1v1h-1z M23,3h1v1h-1z M24,3h1v1h-1z M26,3h1v1h-1z M28,3h1v1h-1z M33,3h1v1h-1z M34,3h1v1h-1z M35,3h1v1h-1z M36,3h1v1h-1z M37,3h1v1h-1z M38,3h1v1h-1z M39,3h1v1h-1z M3,4h1v1h-1z M9,4h1v1h-1z M12,4h1v1h-1z M13,4h1v1h-1z M14,4h1v1h-1z M17,4h1v1h-1z M18,4h1v1h-1z M20,4h1v1h-1z M22,4h1v1h-1z M24,4h1v1h-1z M25,4h1v1h-1z M27,4h1v1h-1z M31,4h1v1h-1z M33,4h1v1h-1z M39,4h1v1h-1z M3,5h1v1h-1z M5,5h1v1h-1z M6,5h1v1h-1z M7,5h1v1h-1z M9,5h1v1h-1z M17,5h1v1h-1z M18,5h1v1h-1z M19,5h1v1h-1z M20,5h1v1h-1z M21,5h1v1h-1z M22,5h1v1h-1z M24,5h1v1h-1z M26,5h1v1h-1z M27,5h1v1h-1z M28,5h1v1h-1z M29,5h1v1h-1z M33,5h1v1h-1z M35,5h1v1h-1z M36,5h1v1h-1z M37,5h1v1h-1z M39,5h1v1h-1z M3,6h1v1h-1z M5,6h1v1h-1z M6,6h1v1h-1z M7,6h1v1h-1z M9,6h1v1h-1z M13,6h1v1h-1z M14,6h1v1h-1z M16,6h1v1h-1z M18,6h1v1h-1z M20,6h1v1h-1z M21,6h1v1h-1z M23,6h1v1h-1z M24,6h1v1h-1z M27,6h1v1h-1z M29,6h1v1h-1z M33,6h1v1h-1z M35,6h1v1h-1z M36,6h1v1h-1z M37,6h1v1h-1z M39,6h1v1h-1z M3,7h1v1h-1z M5,7h1v1h-1z M6,7h1v1h-1z M7,7h1v1h-1z M9,7h1v1h-1z M11,7h1v1h-1z M14,7h1v1h-1z M16,7h1v1h-1z M17,7h1v1h-1z M18,7h1v1h-1z M19,7h1v1h-1z M20,7h1v1h-1z M21,7h1v1h-1z M22,7h1v1h-1z M24,7h1v1h-1z M26,7h1v1h-1z M29,7h1v1h-1z M30,7h1v1h-1z M33,7h1v1h-1z M35,7h1v1h-1z M36,7h1v1h-1z M37,7h1v1h-1z M39,7h1v1h-1z M3,8h1v1h-1z M9,8h1v1h-1z M12,8h1v1h-1z M14,8h1v1h-1z M15,8h1v1h-1z M20,8h1v1h-1z M27,8h1v1h-1z M28,8h1v1h-1z M29,8h1v1h-1z M33,8h1v1h-1z M39,8h1v1h-1z M3,9h1v1h-1z M4,9h1v1h-1z M5,9h1v1h-1z M6,9h1v1h-1z M7,9h1v1h-1z M8,9h1v1h-1z M9,9h1v1h-1z M11,9h1v1h-1z M13,9h1v1h-1z M15,9h1v1h-1z M17,9h1v1h-1z M19,9h1v1h-1z M21,9h1v1h-1z M23,9h1v1h-1z M25,9h1v1h-1z M27,9h1v1h-1z M29,9h1v1h-1z M31,9h1v1h-1z M33,9h1v1h-1z M34,9h1v1h-1z M35,9h1v1h-1z M36,9h1v1h-1z M37,9h1v1h-1z M38,9h1v1h-1z M39,9h1v1h-1z M11,10h1v1h-1z M12,10h1v1h-1z M13,10h1v1h-1z M19,10h1v1h-1z M20,10h1v1h-1z M21,10h1v1h-1z M22,10h1v1h-1z M23,10h1v1h-1z M24,10h1v1h-1z M27,10h1v1h-1z M29,10h1v1h-1z M30,10h1v1h-1z M31,10h1v1h-1z M5,11h1v1h-1z M6,11h1v1h-1z M9,11h1v1h-1z M10,11h1v1h-1z M11,11h1v1h-1z M13,11h1v1h-1z M14,11h1v1h-1z M15,11h1v1h-1z M16,11h1v1h-1z M18,11h1v1h-1z M19,11h1v1h-1z M21,11h1v1h-1z M23,11h1v1h-1z M24,11h1v1h-1z M26,11h1v1h-1z M29,11h1v1h-1z M30,11h1v1h-1z M32,11h1v1h-1z M33,11h1v1h-1z M35,11h1v1h-1z M4,12h1v1h-1z M7,12h1v1h-1z M13,12h1v1h-1z M17,12h1v1h-1z M18,12h1v1h-1z M19,12h1v1h-1z M22,12h1v1h-1z M23,12h1v1h-1z M26,12h1v1h-1z M27,12h1v1h-1z M28,12h1v1h-1z M31,12h1v1h-1z M34,12h1v1h-1z M37,12h1v1h-1z M38,12h1v1h-1z M3,13h1v1h-1z M4,13h1v1h-1z M5,13h1v1h-1z M7,13h1v1h-1z M8,13h1v1h-1z M9,13h1v1h-1z M11,13h1v1h-1z M13,13h1v1h-1z M15,13h1v1h-1z M16,13h1v1h-1z M17,13h1v1h-1z M21,13h1v1h-1z M23,13h1v1h-1z M28,13h1v1h-1z M31,13h1v1h-1z M32,13h1v1h-1z M36,13h1v1h-1z M4,14h1v1h-1z M5,14h1v1h-1z M6,14h1v1h-1z M8,14h1v1h-1z M17,14h1v1h-1z M20,14h1v1h-1z M22,14h1v1h-1z M23,14h1v1h-1z M28,14h1v1h-1z M29,14h1v1h-1z M31,14h1v1h-1z M35,14h1v1h-1z M36,14h1v1h-1z M37,14h1v1h-1z M38,14h1v1h-1z M3,15h1v1h-1z M7,15h1v1h-1z M8,15h1v1h-1z M9,15h1v1h-1z M10,15h1v1h-1z M11,15h1v1h-1z M12,15h1v1h-1z M14,15h1v1h-1z M15,15h1v1h-1z M16,15h1v1h-1z M18,15h1v1h-1z M20,15h1v1h-1z M25,15h1v1h-1z M28,15h1v1h-1z M29,15h1v1h-1z M30,15h1v1h-1z M32,15h1v1h-1z M33,15h1v1h-1z M35,15h1v1h-1z M36,15h1v1h-1z M37,15h1v1h-1z M3,16h1v1h-1z M6,16h1v1h-1z M7,16h1v1h-1z M8,16h1v1h-1z M10,16h1v1h-1z M11,16h1v1h-1z M17,16h1v1h-1z M19,16h1v1h-1z M20,16h1v1h-1z M23,16h1v1h-1z M24,16h1v1h-1z M25,16h1v1h-1z M26,16h1v1h-1z M28,16h1v1h-1z M29,16h1v1h-1z M30,16h1v1h-1z M33,16h1v1h-1z M35,16h1v1h-1z M37,16h1v1h-1z M38,16h1v1h-1z M39,16h1v1h-1z M5,17h1v1h-1z M6,17h1v1h-1z M9,17h1v1h-1z M10,17h1v1h-1z M18,17h1v1h-1z M21,17h1v1h-1z M22,17h1v1h-1z M24,17h1v1h-1z M26,17h1v1h-1z M27,17h1v1h-1z M29,17h1v1h-1z M31,17h1v1h-1z M32,17h1v1h-1z M33,17h1v1h-1z M37,17h1v1h-1z M38,17h1v1h-1z M3,18h1v1h-1z M8,18h1v1h-1z M12,18h1v1h-1z M14,18h1v1h-1z M15,18h1v1h-1z M16,18h1v1h-1z M17,18h1v1h-1z M18,18h1v1h-1z M20,18h1v1h-1z M21,18h1v1h-1z M23,18h1v1h-1z M24,18h1v1h-1z M25,18h1v1h-1z M27,18h1v1h-1z M29,18h1v1h-1z M35,18h1v1h-1z M39,18h1v1h-1z M5,19h1v1h-1z M6,19h1v1h-1z M8,19h1v1h-1z M9,19h1v1h-1z M10,19h1v1h-1z M13,19h1v1h-1z M15,19h1v1h-1z M19,19h1v1h-1z M20,19h1v1h-1z M24,19h1v1h-1z M27,19h1v1h-1z M28,19h1v1h-1z M36,19h1v1h-1z M37,19h1v1h-1z M5,20h1v1h-1z M6,20h1v1h-1z M7,20h1v1h-1z M8,20h1v1h-1z M10,20h1v1h-1z M12,20h1v1h-1z M13,20h1v1h-1z M15,20h1v1h-1z M17,20h1v1h-1z M18,20h1v1h-1z M19,20h1v1h-1z M21,20h1v1h-1z M25,20h1v1h-1z M26,20h1v1h-1z M27,20h1v1h-1z M28,20h1v1h-1z M30,20h1v1h-1z M33,20h1v1h-1z M34,20h1v1h-1z M39,20h1v1h-1z M5,21h1v1h-1z M6,21h1v1h-1z M9,21h1v1h-1z M13,21h1v1h-1z M14,21h1v1h-1z M20,21h1v1h-1z M22,21h1v1h-1z M24,21h1v1h-1z M28,21h1v1h-1z M30,21h1v1h-1z M31,21h1v1h-1z M32,21h1v1h-1z M35,21h1v1h-1z M36,21h1v1h-1z M38,21h1v1h-1z M39,21h1v1h-1z M3,22h1v1h-1z M6,22h1v1h-1z M11,22h1v1h-1z M16,22h1v1h-1z M17,22h1v1h-1z M19,22h1v1h-1z M21,22h1v1h-1z M22,22h1v1h-1z M24,22h1v1h-1z M25,22h1v1h-1z M26,22h1v1h-1z M27,22h1v1h-1z M30,22h1v1h-1z M31,22h1v1h-1z M33,22h1v1h-1z M35,22h1v1h-1z M36,22h1v1h-1z M39,22h1v1h-1z M5,23h1v1h-1z M6,23h1v1h-1z M7,23h1v1h-1z M9,23h1v1h-1z M11,23h1v1h-1z M13,23h1v1h-1z M14,23h1v1h-1z M16,23h1v1h-1z M18,23h1v1h-1z M19,23h1v1h-1z M20,23h1v1h-1z M29,23h1v1h-1z M30,23h1v1h-1z M31,23h1v1h-1z M32,23h1v1h-1z M35,23h1v1h-1z M36,23h1v1h-1z M39,23h1v1h-1z M4,24h1v1h-1z M6,24h1v1h-1z M8,24h1v1h-1z M10,24h1v1h-1z M12,24h1v1h-1z M16,24h1v1h-1z M17,24h1v1h-1z M19,24h1v1h-1z M20,24h1v1h-1z M23,24h1v1h-1z M24,24h1v1h-1z M25,24h1v1h-1z M27,24h1v1h-1z M28,24h1v1h-1z M32,24h1v1h-1z M33,24h1v1h-1z M34,24h1v1h-1z M3,25h1v1h-1z M6,25h1v1h-1z M8,25h1v1h-1z M9,25h1v1h-1z M14,25h1v1h-1z M15,25h1v1h-1z M16,25h1v1h-1z M17,25h1v1h-1z M19,25h1v1h-1z M21,25h1v1h-1z M22,25h1v1h-1z M23,25h1v1h-1z M24,25h1v1h-1z M26,25h1v1h-1z M27,25h1v1h-1z M28,25h1v1h-1z M35,25h1v1h-1z M36,25h1v1h-1z M38,25h1v1h-1z M5,26h1v1h-1z M8,26h1v1h-1z M10,26h1v1h-1z M14,26h1v1h-1z M17,26h1v1h-1z M18,26h1v1h-1z M21,26h1v1h-1z M22,26h1v1h-1z M23,26h1v1h-1z M24,26h1v1h-1z M26,26h1v1h-1z M28,26h1v1h-1z M29,26h1v1h-1z M30,26h1v1h-1z M31,26h1v1h-1z M32,26h1v1h-1z M36,26h1v1h-1z M37,26h1v1h-1z M38,26h1v1h-1z M3,27h1v1h-1z M4,27h1v1h-1z M5,27h1v1h-1z M6,27h1v1h-1z M8,27h1v1h-1z M9,27h1v1h-1z M10,27h1v1h-1z M12,27h1v1h-1z M13,27h1v1h-1z M15,27h1v1h-1z M17,27h1v1h-1z M18,27h1v1h-1z M19,27h1v1h-1z M23,27h1v1h-1z M26,27h1v1h-1z M27,27h1v1h-1z M28,27h1v1h-1z M29,27h1v1h-1z M32,27h1v1h-1z M33,27h1v1h-1z M35,27h1v1h-1z M36,27h1v1h-1z M37,27h1v1h-1z M38,27h1v1h-1z M39,27h1v1h-1z M4,28h1v1h-1z M5,28h1v1h-1z M7,28h1v1h-1z M12,28h1v1h-1z M13,28h1v1h-1z M15,28h1v1h-1z M16,28h1v1h-1z M17,28h1v1h-1z M18,28h1v1h-1z M22,28h1v1h-1z M25,28h1v1h-1z M26,28h1v1h-1z M27,28h1v1h-1z M30,28h1v1h-1z M31,28h1v1h-1z M33,28h1v1h-1z M34,28h1v1h-1z M35,28h1v1h-1z M36,28h1v1h-1z M39,28h1v1h-1z M4,29h1v1h-1z M5,29h1v1h-1z M6,29h1v1h-1z M7,29h1v1h-1z M9,29h1v1h-1z M10,29h1v1h-1z M12,29h1v1h-1z M13,29h1v1h-1z M14,29h1v1h-1z M18,29h1v1h-1z M19,29h1v1h-1z M21,29h1v1h-1z M22,29h1v1h-1z M24,29h1v1h-1z M26,29h1v1h-1z M29,29h1v1h-1z M31,29h1v1h-1z M36,29h1v1h-1z M38,29h1v1h-1z M3,30h1v1h-1z M5,30h1v1h-1z M6,30h1v1h-1z M7,30h1v1h-1z M8,30h1v1h-1z M11,30h1v1h-1z M13,30h1v1h-1z M14,30h1v1h-1z M15,30h1v1h-1z M20,30h1v1h-1z M21,30h1v1h-1z M26,30h1v1h-1z M29,30h1v1h-1z M32,30h1v1h-1z M34,30h1v1h-1z M38,30h1v1h-1z M39,30h1v1h-1z M8,31h1v1h-1z M9,31h1v1h-1z M13,31h1v1h-1z M14,31h1v1h-1z M20,31h1v1h-1z M22,31h1v1h-1z M23,31h1v1h-1z M28,31h1v1h-1z M31,31h1v1h-1z M32,31h1v1h-1z M33,31h1v1h-1z M34,31h1v1h-1z M35,31h1v1h-1z M37,31h1v1h-1z M38,31h1v1h-1z M11,32h1v1h-1z M12,32h1v1h-1z M14,32h1v1h-1z M17,32h1v1h-1z M18,32h1v1h-1z M19,32h1v1h-1z M26,32h1v1h-1z M27,32h1v1h-1z M30,32h1v1h-1z M31,32h1v1h-1z M35,32h1v1h-1z M36,32h1v1h-1z M37,32h1v1h-1z M38,32h1v1h-1z M39,32h1v1h-1z M3,33h1v1h-1z M4,33h1v1h-1z M5,33h1v1h-1z M6,33h1v1h-1z M7,33h1v1h-1z M8,33h1v1h-1z M9,33h1v1h-1z M11,33h1v1h-1z M12,33h1v1h-1z M13,33h1v1h-1z M14,33h1v1h-1z M15,33h1v1h-1z M17,33h1v1h-1z M19,33h1v1h-1z M20,33h1v1h-1z M21,33h1v1h-1z M22,33h1v1h-1z M23,33h1v1h-1z M24,33h1v1h-1z M27,33h1v1h-1z M28,33h1v1h-1z M29,33h1v1h-1z M30,33h1v1h-1z M31,33h1v1h-1z M33,33h1v1h-1z M35,33h1v1h-1z M36,33h1v1h-1z M38,33h1v1h-1z M39,33h1v1h-1z M3,34h1v1h-1z M9,34h1v1h-1z M12,34h1v1h-1z M13,34h1v1h-1z M18,34h1v1h-1z M25,34h1v1h-1z M26,34h1v1h-1z M27,34h1v1h-1z M29,34h1v1h-1z M30,34h1v1h-1z M31,34h1v1h-1z M35,34h1v1h-1z M36,34h1v1h-1z M3,35h1v1h-1z M5,35h1v1h-1z M6,35h1v1h-1z M7,35h1v1h-1z M9,35h1v1h-1z M16,35h1v1h-1z M17,35h1v1h-1z M18,35h1v1h-1z M19,35h1v1h-1z M20,35h1v1h-1z M21,35h1v1h-1z M29,35h1v1h-1z M31,35h1v1h-1z M32,35h1v1h-1z M33,35h1v1h-1z M34,35h1v1h-1z M35,35h1v1h-1z M36,35h1v1h-1z M39,35h1v1h-1z M3,36h1v1h-1z M5,36h1v1h-1z M6,36h1v1h-1z M7,36h1v1h-1z M9,36h1v1h-1z M11,36h1v1h-1z M12,36h1v1h-1z M15,36h1v1h-1z M16,36h1v1h-1z M18,36h1v1h-1z M19,36h1v1h-1z M21,36h1v1h-1z M27,36h1v1h-1z M28,36h1v1h-1z M33,36h1v1h-1z M35,36h1v1h-1z M3,37h1v1h-1z M5,37h1v1h-1z M6,37h1v1h-1z M7,37h1v1h-1z M9,37h1v1h-1z M11,37h1v1h-1z M12,37h1v1h-1z M14,37h1v1h-1z M18,37h1v1h-1z M20,37h1v1h-1z M22,37h1v1h-1z M23,37h1v1h-1z M26,37h1v1h-1z M28,37h1v1h-1z M33,37h1v1h-1z M34,37h1v1h-1z M35,37h1v1h-1z M36,37h1v1h-1z M38,37h1v1h-1z M3,38h1v1h-1z M9,38h1v1h-1z M14,38h1v1h-1z M15,38h1v1h-1z M16,38h1v1h-1z M19,38h1v1h-1z M20,38h1v1h-1z M22,38h1v1h-1z M23,38h1v1h-1z M24,38h1v1h-1z M25,38h1v1h-1z M26,38h1v1h-1z M28,38h1v1h-1z M29,38h1v1h-1z M35,38h1v1h-1z M36,38h1v1h-1z M37,38h1v1h-1z M3,39h1v1h-1z M4,39h1v1h-1z M5,39h1v1h-1z M6,39h1v1h-1z M7,39h1v1h-1z M8,39h1v1h-1z M9,39h1v1h-1z M12,39h1v1h-1z M15,39h1v1h-1z M17,39h1v1h-1z M18,39h1v1h-1z M21,39h1v1h-1z M22,39h1v1h-1z M23,39h1v1h-1z M24,39h1v1h-1z M25,39h1v1h-1z M27,39h1v1h-1z M28,39h1v1h-1z M29,39h1v1h-1z M32,39h1v1h-1z M35,39h1v1h-1z M36,39h1v1h-1z M37,39h1v1h-1z M38,39h1v1h-1z M39,39h1v1h-1z" fill="#818bc5"/>
</svg>
